<svg width="21" height="22" viewBox="0 0 21 22" fill="none" xmlns="http://www.w3.org/2000/svg">
<path fill-rule="evenodd" clip-rule="evenodd" d="M6.75714 0.0599999C5.54369 0.0599999 4.56 1.04369 4.56 2.25714V3.13333H6.44V2.25714C6.44 2.08199 6.58199 1.94 6.75714 1.94H18.2429C18.418 1.94 18.56 2.08199 18.56 2.25714V15.7429C18.56 15.918 18.418 16.06 18.2429 16.06H17.5V17.94H18.2429C19.4563 17.94 20.44 16.9563 20.44 15.7429V2.25714C20.44 1.04369 19.4563 0.0599999 18.2429 0.0599999H6.75714ZM2.25714 5.06C1.04369 5.06 0.0599999 6.0437 0.0599999 7.25714V19.7429C0.0599999 20.9563 1.0437 21.94 2.25714 21.94H13.7429C14.9563 21.94 15.94 20.9563 15.94 19.7429V7.25714C15.94 6.04369 14.9563 5.06 13.7429 5.06H2.25714ZM1.94 7.25714C1.94 7.08199 2.08199 6.94 2.25714 6.94H13.7429C13.918 6.94 14.06 7.08199 14.06 7.25714V19.7429C14.06 19.918 13.918 20.06 13.7429 20.06H2.25714C2.08199 20.06 1.94 19.918 1.94 19.7429V7.25714Z" fill="white"/>
</svg>
