<svg width="18" height="19" viewBox="0 0 18 19" fill="none" xmlns="http://www.w3.org/2000/svg">
<path fill-rule="evenodd" clip-rule="evenodd" d="M6.50714 0.226685C5.29369 0.226685 4.31 1.21038 4.31 2.42383V2.94446H6.19V2.42383C6.19 2.24867 6.33199 2.10668 6.50714 2.10668H15.6595C15.8347 2.10668 15.9767 2.24868 15.9767 2.42383V13.2429C15.9767 13.418 15.8347 13.56 15.6595 13.56H15.25V15.44H15.6595C16.873 15.44 17.8567 14.4563 17.8567 13.2429V2.42383C17.8567 1.21038 16.873 0.226685 15.6595 0.226685H6.50714ZM2.75714 4.39335C1.54369 4.39335 0.559998 5.37705 0.559998 6.59049V16.5762C0.559998 17.7897 1.54369 18.7734 2.75714 18.7734H11.9095C13.123 18.7734 14.1067 17.7897 14.1067 16.5762V6.59049C14.1067 5.37705 13.123 4.39335 11.9095 4.39335H2.75714ZM2.44 6.59049C2.44 6.41534 2.58199 6.27335 2.75714 6.27335H11.9095C12.0847 6.27335 12.2267 6.41534 12.2267 6.59049V16.5762C12.2267 16.7514 12.0847 16.8934 11.9095 16.8934H2.75714C2.58199 16.8934 2.44 16.7514 2.44 16.5762V6.59049Z" fill="white"/>
</svg>
