<svg width="8" height="11" viewBox="0 0 8 11" fill="none" xmlns="http://www.w3.org/2000/svg">
<path fill-rule="evenodd" clip-rule="evenodd" d="M2.55431 1.1763C2.55428 1.17632 2.55426 1.17635 2.55423 1.17638L3.22241 1.56322C3.41796 1.36827 3.68465 1.24968 3.99997 1.24968C4.33929 1.24968 4.64699 1.38702 4.87044 1.60906C4.64697 1.38684 4.33914 1.24937 3.99966 1.24937C3.68434 1.24937 3.41766 1.36797 3.22211 1.56292L2.55431 1.1763ZM5.40646 1.07406C5.76827 1.43487 5.99224 1.93382 5.99224 2.48477V4.05557H5.99255V2.48508C5.99255 1.93397 5.76845 1.43489 5.40646 1.07406ZM6.95212 4.28817C7.09749 4.43275 7.1878 4.63265 7.1878 4.85261V8.83778C7.1878 9.27615 6.82913 9.63481 6.39076 9.63481H1.60856C1.39031 9.63481 1.19181 9.54591 1.0475 9.40253C1.19184 9.54609 1.39046 9.63512 1.60886 9.63512H6.39107C6.82944 9.63512 7.1881 9.27645 7.1881 8.83809V4.85292C7.1881 4.6328 7.09767 4.43277 6.95212 4.28817ZM1.60886 3.57999H4.75948V2.48508C4.75948 2.06644 4.4186 1.72557 3.99997 1.72557C3.81091 1.72557 3.66496 1.79401 3.5584 1.90024L3.29989 2.15797L1.83475 1.30974L2.18404 0.877342C2.60999 0.350027 3.25255 0.0166016 3.99997 0.0166016C5.3627 0.0166016 6.46844 1.12234 6.46844 2.48508V3.58232C7.13384 3.62253 7.66399 4.1777 7.66399 4.85292V8.83809C7.66399 9.53928 7.09226 10.111 6.39107 10.111H1.60886C0.907668 10.111 0.335938 9.53928 0.335938 8.83809V4.85292C0.335938 4.15172 0.907665 3.57999 1.60886 3.57999ZM2.08475 8.36219V5.32881H5.91518V8.36219H2.08475ZM6.39076 4.85292H1.60886V8.83778H1.60856V4.85261H6.39076V4.85292Z" fill="#E46D64"/>
</svg>
